<mxfile host="app.diagrams.net" modified="2024-02-12T10:30:54.170Z" agent="Mozilla/5.0 (X11; Linux x86_64) AppleWebKit/537.36 (KHTML, like Gecko) Chrome/116.0.0.0 Safari/537.36" version="23.1.2" etag="sadv560VsqTe-BRie99r" type="github">
  <diagram name="Page-1" id="aZGUzB9xGqYUW5ZcgOHd">
    <mxGraphModel>
      <root>
        <mxCell id="0" />
        <mxCell id="1" parent="0" />
      </root>
    </mxGraphModel>
  </diagram>
</mxfile>
